<svg xmlns="http://www.w3.org/2000/svg" xmlns:xlink="http://www.w3.org/1999/xlink" xml:lang="en" height="1452.4pt" width="1785.47pt" viewBox="-151.86999999999998 -1034.2 1785.47 1452.4" style="background-color:white;"><path d="M 0.0,-756.0 L 180,-756 L 180,-864 L 0,-864 L 0,-756" style="stroke:#172033;fill:none;stroke-width:1.8;stroke-dasharray:-;stroke-linecap:round;stroke-linejoin:round;" /><path d="M 0.0,-576.0 L 180,-576 L 180,-684 L 0,-684 L 0,-576" style="stroke:#172033;fill:none;stroke-width:1.8;stroke-dasharray:-;stroke-linecap:round;stroke-linejoin:round;" /><path d="M 0.0,-810.0 L -18,-810 L -36,-810" style="stroke:#b33b32;fill:none;stroke-width:3;stroke-dasharray:-;stroke-linecap:round;stroke-linejoin:round;" /><path d="M -36.0,-810.0 L -36,-765 L -36,-720" style="stroke:#b33b32;fill:none;stroke-width:3;stroke-dasharray:-;stroke-linecap:round;stroke-linejoin:round;" /><path d="M -36.0,-720.0 L 90,-720 L 216,-720" style="stroke:#b33b32;fill:none;stroke-width:3;stroke-dasharray:-;stroke-linecap:round;stroke-linejoin:round;" /><path d="M 216.0,-720.0 L 216,-675 L 216,-630" style="stroke:#b33b32;fill:none;stroke-width:3;stroke-dasharray:-;stroke-linecap:round;stroke-linejoin:round;" /><path d="M 216.0,-630.0 L 198,-630 L 180,-630" style="stroke:#b33b32;fill:none;stroke-width:3;stroke-dasharray:-;stroke-linecap:round;stroke-linejoin:round;" /><path d="M 0.0,-630.0 L -36,-630 L -72,-630" style="stroke:#b33b32;fill:none;stroke-width:3;stroke-dasharray:-;stroke-linecap:round;stroke-linejoin:round;" /><path d="M -72.0,-630.0 L -72,-585 L -72,-540" style="stroke:#b33b32;fill:none;stroke-width:3;stroke-dasharray:-;stroke-linecap:round;stroke-linejoin:round;" /><path d="M -72.0,-540.0 L 72,-540 L 216,-540" style="stroke:#b33b32;fill:none;stroke-width:3;stroke-dasharray:-;stroke-linecap:round;stroke-linejoin:round;" /><path d="M 180.0,-810.0 L 234,-810 L 288,-810" style="stroke:#b33b32;fill:none;stroke-width:3;stroke-dasharray:-;stroke-linecap:round;stroke-linejoin:round;" /><path d="M 288.0,-810.0 L 326.16,-810 L 326.807,-811.151 L 327.453,-812.283 L 328.1,-813.377 L 328.746,-814.416 L 329.393,-815.383 L 330.039,-816.261 L 330.686,-817.036 L 331.332,-817.696 L 331.979,-818.23 L 332.625,-818.628 L 333.272,-818.885 L 333.918,-818.995 L 334.565,-818.958 L 335.211,-818.774 L 335.858,-818.446 L 336.504,-817.979 L 337.151,-817.382 L 337.798,-816.663 L 338.444,-815.834 L 339.091,-814.91 L 339.737,-813.905 L 340.384,-812.836 L 341.03,-811.72 L 341.677,-810.577 L 342.323,-809.423 L 342.97,-808.28 L 343.616,-807.164 L 344.263,-806.095 L 344.909,-805.09 L 345.556,-804.166 L 346.202,-803.337 L 346.849,-802.618 L 347.496,-802.021 L 348.142,-801.554 L 348.789,-801.226 L 349.435,-801.042 L 350.082,-801.005 L 350.728,-801.115 L 351.375,-801.372 L 352.021,-801.77 L 352.668,-802.304 L 353.314,-802.964 L 353.961,-803.739 L 354.607,-804.617 L 355.254,-805.584 L 355.9,-806.623 L 356.547,-807.717 L 357.193,-808.849 L 357.84,-810 L 396,-810" style="stroke:#b33b32;fill:none;stroke-width:1.8;stroke-dasharray:-;stroke-linecap:round;stroke-linejoin:round;" /><path d="M 317.52,-810.0 M 366.48,-810" style="stroke:#b33b32;fill:none;stroke-width:1.8;stroke-dasharray:-;stroke-linecap:round;stroke-linejoin:round;" /><path d="M 396.0,-810.0 L 450,-810 L 504,-810" style="stroke:#b33b32;fill:none;stroke-width:3;stroke-dasharray:-;stroke-linecap:round;stroke-linejoin:round;" /><path d="M 504.0,-810.0 L 558,-810 L 561,-819 L 567,-801 L 573,-819 L 579,-801 L 585,-819 L 591,-801 L 594,-810 L 648,-810" style="stroke:#b33b32;fill:none;stroke-width:1.8;stroke-dasharray:-;stroke-linecap:round;stroke-linejoin:round;" /><path d="M 648.0,-810.0 L 774,-810 L 900,-810" style="stroke:#b33b32;fill:none;stroke-width:3;stroke-dasharray:-;stroke-linecap:round;stroke-linejoin:round;" /><path d="M 900.0,-756.0 L 1224,-756 L 1224,-864 L 900,-864 L 900,-756" style="stroke:#172033;fill:none;stroke-width:1.8;stroke-dasharray:-;stroke-linecap:round;stroke-linejoin:round;" /><path d="M 504.0,-810.0 L 504,-765 L 504,-720" style="stroke:#9a6900;fill:none;stroke-width:1.8;stroke-dasharray:-;stroke-linecap:round;stroke-linejoin:round;" /><path d="M 648.0,-810.0 L 648,-765 L 648,-720" style="stroke:#9a6900;fill:none;stroke-width:1.8;stroke-dasharray:-;stroke-linecap:round;stroke-linejoin:round;" /><path d="M 792.0,-810.0 L 792,-729 L 792,-648" style="stroke:#9a6900;fill:none;stroke-width:1.8;stroke-dasharray:-;stroke-linecap:round;stroke-linejoin:round;" /><path d="M 1062.0,-756.0 L 1062,-720 L 1062,-684" style="stroke:#b33b32;fill:none;stroke-width:3;stroke-dasharray:-;stroke-linecap:round;stroke-linejoin:round;" /><path d="M 1224.0,-810.0 L 1278,-810 L 1332,-810" style="stroke:#b33b32;fill:none;stroke-width:3;stroke-dasharray:-;stroke-linecap:round;stroke-linejoin:round;" /><path d="M 1332.0,-720.0 L 1620,-720 L 1620,-900 L 1332,-900 L 1332,-720" style="stroke:#172033;fill:none;stroke-width:1.8;stroke-dasharray:-;stroke-linecap:round;stroke-linejoin:round;" /><path d="M 1368.0,-720.0 L 1368,-684 L 1368,-648" style="stroke:#b33b32;fill:none;stroke-width:2.5;stroke-dasharray:-;stroke-linecap:round;stroke-linejoin:round;" /><path d="M 1476.0,-720.0 L 1476,-657 L 1476,-594" style="stroke:#b33b32;fill:none;stroke-width:2.5;stroke-dasharray:-;stroke-linecap:round;stroke-linejoin:round;" /><path d="M 1584.0,-720.0 L 1584,-630 L 1584,-540" style="stroke:#b33b32;fill:none;stroke-width:2.5;stroke-dasharray:-;stroke-linecap:round;stroke-linejoin:round;" /><path d="M 0.0,-216.0 L 216,-216 L 216,-468 L 0,-468 L 0,-216" style="stroke:#172033;fill:none;stroke-width:1.8;stroke-dasharray:-;stroke-linecap:round;stroke-linejoin:round;" /><path d="M 288.0,-324.0 L 396,-324 L 396,-432 L 288,-432 L 288,-324" style="stroke:#172033;fill:none;stroke-width:1.8;stroke-dasharray:-;stroke-linecap:round;stroke-linejoin:round;" /><path d="M 216.0,-378.0 L 252,-378 L 288,-378" style="stroke:#167b83;fill:none;stroke-width:3;stroke-dasharray:-;stroke-linecap:round;stroke-linejoin:round;" /><path d="M 468.0,-324.0 L 648,-324 L 648,-432 L 468,-432 L 468,-324" style="stroke:#172033;fill:none;stroke-width:1.8;stroke-dasharray:-;stroke-linecap:round;stroke-linejoin:round;" /><path d="M 720.0,-324.0 L 900,-324 L 900,-432 L 720,-432 L 720,-324" style="stroke:#172033;fill:none;stroke-width:1.8;stroke-dasharray:-;stroke-linecap:round;stroke-linejoin:round;" /><path d="M 972.0,-324.0 L 1152,-324 L 1152,-432 L 972,-432 L 972,-324" style="stroke:#172033;fill:none;stroke-width:1.8;stroke-dasharray:-;stroke-linecap:round;stroke-linejoin:round;" /><path d="M 1224.0,-324.0 L 1404,-324 L 1404,-432 L 1224,-432 L 1224,-324" style="stroke:#172033;fill:none;stroke-width:1.8;stroke-dasharray:-;stroke-linecap:round;stroke-linejoin:round;" /><path d="M 396.0,-378.0 L 432,-378 L 468,-378" style="stroke:#167b83;fill:none;stroke-width:3;stroke-dasharray:-;stroke-linecap:round;stroke-linejoin:round;" /><path d="M 648.0,-378.0 L 684,-378 L 720,-378" style="stroke:#167b83;fill:none;stroke-width:3;stroke-dasharray:-;stroke-linecap:round;stroke-linejoin:round;" /><path d="M 900.0,-378.0 L 936,-378 L 972,-378" style="stroke:#167b83;fill:none;stroke-width:3;stroke-dasharray:-;stroke-linecap:round;stroke-linejoin:round;" /><path d="M 1152.0,-378.0 L 1188,-378 L 1224,-378" style="stroke:#167b83;fill:none;stroke-width:3;stroke-dasharray:-;stroke-linecap:round;stroke-linejoin:round;" /><path d="M 990.0,-432.0 L 990,-453.6 L 990,-475.2" style="stroke:#9a6900;fill:none;stroke-width:1.8;stroke-dasharray:-;stroke-linecap:round;stroke-linejoin:round;" /><path d="M 1062.0,-432.0 L 1062,-453.6 L 1062,-475.2" style="stroke:#9a6900;fill:none;stroke-width:1.8;stroke-dasharray:-;stroke-linecap:round;stroke-linejoin:round;" /><path d="M 1134.0,-432.0 L 1134,-453.6 L 1134,-475.2" style="stroke:#9a6900;fill:none;stroke-width:1.8;stroke-dasharray:-;stroke-linecap:round;stroke-linejoin:round;" /><path d="M 1242.0,-432.0 L 1242,-453.6 L 1242,-475.2" style="stroke:#9a6900;fill:none;stroke-width:1.8;stroke-dasharray:-;stroke-linecap:round;stroke-linejoin:round;" /><path d="M 1368.0,-432.0 L 1368,-453.6 L 1368,-475.2" style="stroke:#9a6900;fill:none;stroke-width:1.8;stroke-dasharray:-;stroke-linecap:round;stroke-linejoin:round;" /><path d="M -108.0,-342.0 L -54,-342 L 0,-342" style="stroke:#b33b32;fill:none;stroke-width:2.5;stroke-dasharray:-;stroke-linecap:round;stroke-linejoin:round;" /><path d="M 468.0,-36.0 L 756,-36 L 756,-144 L 468,-144 L 468,-36" style="stroke:#172033;fill:none;stroke-width:1.8;stroke-dasharray:-;stroke-linecap:round;stroke-linejoin:round;" /><path d="M 900.0,-36.0 L 1224,-36 L 1224,-144 L 900,-144 L 900,-36" style="stroke:#172033;fill:none;stroke-width:1.8;stroke-dasharray:-;stroke-linecap:round;stroke-linejoin:round;" /><path d="M 216.0,-252.0 L 288,-252 L 360,-252" style="stroke:#325fa2;fill:none;stroke-width:1.8;stroke-dasharray:-;stroke-linecap:round;stroke-linejoin:round;" /><path d="M 360.0,-252.0 L 360,-171 L 360,-90" style="stroke:#325fa2;fill:none;stroke-width:1.8;stroke-dasharray:-;stroke-linecap:round;stroke-linejoin:round;" /><path d="M 360.0,-90.0 L 414,-90 L 468,-90" style="stroke:#325fa2;fill:none;stroke-width:1.8;stroke-dasharray:-;stroke-linecap:round;stroke-linejoin:round;" /><path d="M 756.0,-90.0 L 828,-90 L 900,-90" style="stroke:#325fa2;fill:none;stroke-width:1.8;stroke-dasharray:-;stroke-linecap:round;stroke-linejoin:round;" /><path d="M 1062.0,-36.0 L 1062,14.4 L 1062,64.8" style="stroke:#325fa2;fill:none;stroke-width:1.8;stroke-dasharray:-;stroke-linecap:round;stroke-linejoin:round;" /><path d="M 1062.0,64.8 L 657,64.8 L 252,64.8" style="stroke:#325fa2;fill:none;stroke-width:1.8;stroke-dasharray:-;stroke-linecap:round;stroke-linejoin:round;" /><path d="M 252.0,64.8 L 252,-75.6 L 252,-216" style="stroke:#325fa2;fill:none;stroke-width:1.8;stroke-dasharray:-;stroke-linecap:round;stroke-linejoin:round;" /><path d="M 252.0,-216.0 L 234,-216 L 216,-216" style="stroke:#325fa2;fill:none;stroke-width:1.8;stroke-dasharray:-;stroke-linecap:round;stroke-linejoin:round;" /><path d="M 0.0,288.0 L 360,288 L 360,180 L 0,180 L 0,288" style="stroke:#172033;fill:none;stroke-width:1.8;stroke-dasharray:-;stroke-linecap:round;stroke-linejoin:round;" /><path d="M 540.0,288.0 L 900,288 L 900,180 L 540,180 L 540,288" style="stroke:#172033;fill:none;stroke-width:1.8;stroke-dasharray:-;stroke-linecap:round;stroke-linejoin:round;" /><path d="M 72.0,-216.0 L 72,-45 L 72,126" style="stroke:#325fa2;fill:none;stroke-width:1.8;stroke-dasharray:-;stroke-linecap:round;stroke-linejoin:round;" /><path d="M 72.0,126.0 L 126,126 L 180,126" style="stroke:#325fa2;fill:none;stroke-width:1.8;stroke-dasharray:-;stroke-linecap:round;stroke-linejoin:round;" /><path d="M 180.0,126.0 L 180,153 L 180,180" style="stroke:#325fa2;fill:none;stroke-width:1.8;stroke-dasharray:-;stroke-linecap:round;stroke-linejoin:round;" /><path d="M 144.0,-216.0 L 144,-57.6 L 144,100.8" style="stroke:#325fa2;fill:none;stroke-width:1.8;stroke-dasharray:-;stroke-linecap:round;stroke-linejoin:round;" /><path d="M 144.0,100.8 L 432,100.8 L 720,100.8" style="stroke:#325fa2;fill:none;stroke-width:1.8;stroke-dasharray:-;stroke-linecap:round;stroke-linejoin:round;" /><path d="M 720.0,100.8 L 720,140.4 L 720,180" style="stroke:#325fa2;fill:none;stroke-width:1.8;stroke-dasharray:-;stroke-linecap:round;stroke-linejoin:round;" /><path d="M -108.0,234.0 L -54,234 L 0,234" style="stroke:#b33b32;fill:none;stroke-width:2.5;stroke-dasharray:-;stroke-linecap:round;stroke-linejoin:round;" /><path d="M 1008.0,234.0 L 954,234 L 900,234" style="stroke:#b33b32;fill:none;stroke-width:2.5;stroke-dasharray:-;stroke-linecap:round;stroke-linejoin:round;" /><text x="3.6" y="-1029.6" dominant-baseline="central" fill="#172033" font-size="18" font-family="sans" text-anchor="start"><tspan x="3.6" dy="18">KRABBY M16 / TASK 3 — POWER, SENSORS / CONTROLLERS</tspan></text><text x="3.6" y="-975.8000000000001" dominant-baseline="central" fill="#172033" font-size="11" font-family="sans" text-anchor="start"><tspan x="3.6" dy="11">Connection overview · matching net names are electrically connected</tspan></text><text x="93.60000000000001" y="-830.1" dominant-baseline="central" fill="#172033" font-size="11" font-family="sans" text-anchor="middle"><tspan x="93.60000000000001" dy="11">BATTERY B</tspan><tspan x="93.60000000000001" dy="11">12 V LiFePO4</tspan></text><text x="93.60000000000001" y="-650.1" dominant-baseline="central" fill="#172033" font-size="11" font-family="sans" text-anchor="middle"><tspan x="93.60000000000001" dy="11">BATTERY A</tspan><tspan x="93.60000000000001" dy="11">12 V LiFePO4</tspan></text><text x="16.2" y="-827.6" dominant-baseline="central" fill="#172033" font-size="14" font-family="sans" text-anchor="middle"><tspan x="16.2" dy="14">−</tspan></text><text x="171.0" y="-827.6" dominant-baseline="central" fill="#172033" font-size="14" font-family="sans" text-anchor="middle"><tspan x="171.0" dy="14">+</tspan></text><text x="16.2" y="-647.6" dominant-baseline="central" fill="#172033" font-size="14" font-family="sans" text-anchor="middle"><tspan x="16.2" dy="14">−</tspan></text><text x="171.0" y="-647.6" dominant-baseline="central" fill="#172033" font-size="14" font-family="sans" text-anchor="middle"><tspan x="171.0" dy="14">+</tspan></text><text x="212.4" y="-746.1999999999999" dominant-baseline="central" fill="#9a6900" font-size="10" font-family="sans" text-anchor="middle"><tspan x="212.4" dy="10">MIDPOINT</tspan></text><text x="219.6" y="-573.4" dominant-baseline="central" fill="#b33b32" font-size="10" font-family="sans" text-anchor="middle"><tspan x="219.6" dy="10">PACK− / GND</tspan></text><text x="342.0" y="-833.5953759458062" dominant-baseline="ideographic" fill="#b33b32" font-size="11" font-family="sans" text-anchor="middle"><tspan x="342.0" dy="11">F1 · 150 A</tspan></text><text x="345.59999999999997" y="-895.6" dominant-baseline="central" fill="#172033" font-size="10" font-family="sans" text-anchor="middle"><tspan x="345.59999999999997" dy="10">First element at Pack+</tspan></text><text x="576.0" y="-844.6" dominant-baseline="ideographic" fill="#b33b32" font-size="11" font-family="sans" text-anchor="middle"><tspan x="576.0" dy="11">EXTERNAL SHUNT</tspan><tspan x="576.0" dy="11">200 A / 75 mV · 0.375 mΩ</tspan></text><text x="1065.6000000000001" y="-830.1" dominant-baseline="central" fill="#172033" font-size="11" font-family="sans" text-anchor="middle"><tspan x="1065.6000000000001" dy="11">OCTOPUS / 24 V DISTRIBUTION</tspan><tspan x="1065.6000000000001" dy="11">Motor power and MCU supply branches</tspan></text><text x="507.59999999999997" y="-746.1999999999999" dominant-baseline="central" fill="#9a6900" font-size="10" font-family="sans" text-anchor="middle"><tspan x="507.59999999999997" dy="10">KELVIN+</tspan></text><text x="651.6" y="-746.1999999999999" dominant-baseline="central" fill="#9a6900" font-size="10" font-family="sans" text-anchor="middle"><tspan x="651.6" dy="10">KELVIN−</tspan></text><text x="795.6" y="-674.1999999999999" dominant-baseline="central" fill="#9a6900" font-size="10" font-family="sans" text-anchor="middle"><tspan x="795.6" dy="10">LOAD+ / VBUS</tspan></text><text x="579.6" y="-623.4" dominant-baseline="central" fill="#172033" font-size="10" font-family="sans" text-anchor="middle"><tspan x="579.6" dy="10">Kelvin leads: small sense screws</tspan><tspan x="579.6" dy="10">VBUS: load-side power stud</tspan></text><text x="1065.6000000000001" y="-710.1999999999999" dominant-baseline="central" fill="#b33b32" font-size="10" font-family="sans" text-anchor="middle"><tspan x="1065.6000000000001" dy="10">PACK− / GND</tspan></text><text x="1479.6000000000001" y="-846.6" dominant-baseline="central" fill="#172033" font-size="11" font-family="sans" text-anchor="middle"><tspan x="1479.6000000000001" dy="11">MCU SUPPLY REGULATION</tspan><tspan x="1479.6000000000001" dy="11" /><tspan x="1479.6000000000001" dy="11">From octopus LOAD+ / GND</tspan><tspan x="1479.6000000000001" dy="11">Converter arrangement, voltage</tspan><tspan x="1479.6000000000001" dy="11">and connectors to be confirmed</tspan></text><text x="1371.6000000000001" y="-674.1999999999999" dominant-baseline="central" fill="#b33b32" font-size="10" font-family="sans" text-anchor="middle"><tspan x="1371.6000000000001" dy="10">LEADER_PWR</tspan></text><text x="1479.6000000000001" y="-620.1999999999999" dominant-baseline="central" fill="#b33b32" font-size="10" font-family="sans" text-anchor="middle"><tspan x="1479.6000000000001" dy="10">LEFT_PWR</tspan></text><text x="1587.6000000000001" y="-566.2" dominant-baseline="central" fill="#b33b32" font-size="10" font-family="sans" text-anchor="middle"><tspan x="1587.6000000000001" dy="10">RIGHT_PWR</tspan></text><text x="111.60000000000001" y="-373.09999999999997" dominant-baseline="central" fill="#172033" font-size="11" font-family="sans" text-anchor="middle"><tspan x="111.60000000000001" dy="11">A1</tspan><tspan x="111.60000000000001" dy="11" /><tspan x="111.60000000000001" dy="11">LEADER MEGA</tspan><tspan x="111.60000000000001" dy="11">Front · FL / FR</tspan></text><text x="345.59999999999997" y="-403.59999999999997" dominant-baseline="central" fill="#172033" font-size="11" font-family="sans" text-anchor="middle"><tspan x="345.59999999999997" dy="11">A2</tspan><tspan x="345.59999999999997" dy="11">Qwiic</tspan><tspan x="345.59999999999997" dy="11">adapter</tspan></text><text x="255.6" y="-504.59999999999997" dominant-baseline="central" fill="#172033" font-size="10" font-family="sans" text-anchor="middle"><tspan x="255.6" dy="10">3V3 / GND</tspan><tspan x="255.6" dy="10">D20 SDA / D21 SCL</tspan></text><text x="561.6" y="-398.09999999999997" dominant-baseline="central" fill="#172033" font-size="11" font-family="sans" text-anchor="middle"><tspan x="561.6" dy="11">LSM6DSO IMU</tspan><tspan x="561.6" dy="11">0x6B</tspan></text><text x="813.6" y="-398.09999999999997" dominant-baseline="central" fill="#172033" font-size="11" font-family="sans" text-anchor="middle"><tspan x="813.6" dy="11">SSD1306 OLED</tspan><tspan x="813.6" dy="11">0x3D · 128 × 64</tspan></text><text x="1065.6000000000001" y="-398.09999999999997" dominant-baseline="central" fill="#172033" font-size="11" font-family="sans" text-anchor="middle"><tspan x="1065.6000000000001" dy="11">PACK INA228</tspan><tspan x="1065.6000000000001" dy="11">SparkFun · 0x40</tspan></text><text x="1317.6000000000001" y="-398.09999999999997" dominant-baseline="central" fill="#172033" font-size="11" font-family="sans" text-anchor="middle"><tspan x="1317.6000000000001" dy="11">MIDPOINT INA228</tspan><tspan x="1317.6000000000001" dy="11">SparkFun · 0x41</tspan></text><text x="986.4" y="-529.8" dominant-baseline="central" fill="#9a6900" font-size="10" font-family="sans" text-anchor="middle"><tspan x="986.4" dy="10">IN+</tspan><tspan x="986.4" dy="10">KELVIN+</tspan></text><text x="1058.3999999999999" y="-529.8" dominant-baseline="central" fill="#9a6900" font-size="10" font-family="sans" text-anchor="middle"><tspan x="1058.3999999999999" dy="10">IN−</tspan><tspan x="1058.3999999999999" dy="10">KELVIN−</tspan></text><text x="1130.3999999999999" y="-529.8" dominant-baseline="central" fill="#9a6900" font-size="10" font-family="sans" text-anchor="middle"><tspan x="1130.3999999999999" dy="10">VBUS</tspan><tspan x="1130.3999999999999" dy="10">LOAD+</tspan></text><text x="1238.3999999999999" y="-529.8" dominant-baseline="central" fill="#9a6900" font-size="10" font-family="sans" text-anchor="middle"><tspan x="1238.3999999999999" dy="10">IN+ / IN−</tspan><tspan x="1238.3999999999999" dy="10">PACK−</tspan></text><text x="1364.3999999999999" y="-529.8" dominant-baseline="central" fill="#9a6900" font-size="10" font-family="sans" text-anchor="middle"><tspan x="1364.3999999999999" dy="10">VBUS</tspan><tspan x="1364.3999999999999" dy="10">MIDPOINT</tspan></text><text x="752.4" y="-299.0" dominant-baseline="central" fill="#167b83" font-size="11" font-family="sans" text-anchor="middle"><tspan x="752.4" dy="11">QWIIC: 3.3 V + GND + SDA + SCL</tspan></text><text x="1166.3999999999999" y="-252.6" dominant-baseline="central" fill="#172033" font-size="10" font-family="sans" text-anchor="middle"><tspan x="1166.3999999999999" dy="10">Both INA boards: SHUNT open; VBUS open</tspan><tspan x="1166.3999999999999" dy="10">Pack: A0/A1 closed · Midpoint: A0 open, A1 closed</tspan></text><text x="-104.39999999999999" y="-375.40000000000003" dominant-baseline="central" fill="#b33b32" font-size="10" font-family="sans" text-anchor="middle"><tspan x="-104.39999999999999" dy="10">LEADER_PWR</tspan></text><text x="111.60000000000001" y="-283.59999999999997" dominant-baseline="central" fill="#172033" font-size="10" font-family="sans" text-anchor="middle"><tspan x="111.60000000000001" dy="10">Power return: PACK− / GND</tspan></text><text x="615.6" y="-110.10000000000001" dominant-baseline="central" fill="#172033" font-size="11" font-family="sans" text-anchor="middle"><tspan x="615.6" dy="11">FRONT H-BRIDGE BOARDS</tspan><tspan x="615.6" dy="11">6 motor channels · LOAD+ / GND</tspan></text><text x="1065.6000000000001" y="-115.60000000000001" dominant-baseline="central" fill="#172033" font-size="11" font-family="sans" text-anchor="middle"><tspan x="1065.6000000000001" dy="11">FRONT ACTUATORS</tspan><tspan x="1065.6000000000001" dy="11">FL + FR · 3 per leg</tspan><tspan x="1065.6000000000001" dy="11">Motor pair + potentiometer feedback</tspan></text><text x="363.59999999999997" y="-18.6" dominant-baseline="central" fill="#172033" font-size="10" font-family="sans" text-anchor="middle"><tspan x="363.59999999999997" dy="10">PWM / enable → drivers</tspan><tspan x="363.59999999999997" dy="10">Current sense → MCU</tspan></text><text x="831.6" y="-136.0" dominant-baseline="central" fill="#172033" font-size="10" font-family="sans" text-anchor="middle"><tspan x="831.6" dy="10">Motor pairs</tspan></text><text x="752.4" y="40.400000000000006" dominant-baseline="central" fill="#172033" font-size="10" font-family="sans" text-anchor="middle"><tspan x="752.4" dy="10">Potentiometer supply / GND / position → MCU ADC</tspan></text><text x="183.6" y="208.4" dominant-baseline="central" fill="#172033" font-size="11" font-family="sans" text-anchor="middle"><tspan x="183.6" dy="11">LEFT FOLLOWER MEGA</tspan><tspan x="183.6" dy="11">ML + RL · 6 actuator channels</tspan><tspan x="183.6" dy="11">Local H-bridges + motor / pot wiring</tspan></text><text x="723.6" y="208.4" dominant-baseline="central" fill="#172033" font-size="11" font-family="sans" text-anchor="middle"><tspan x="723.6" dy="11">RIGHT FOLLOWER MEGA</tspan><tspan x="723.6" dy="11">MR + RR · 6 actuator channels</tspan><tspan x="723.6" dy="11">Local H-bridges + motor / pot wiring</tspan></text><text x="39.6" y="55.60000000000001" dominant-baseline="central" fill="#172033" font-size="10" font-family="sans" text-anchor="end"><tspan x="39.6" dy="10">Serial1</tspan><tspan x="39.6" dy="10">TX1 D18</tspan><tspan x="39.6" dy="10">RX1 D19</tspan></text><text x="759.6" y="137.6" dominant-baseline="central" fill="#172033" font-size="10" font-family="sans" text-anchor="start"><tspan x="759.6" dy="10">Serial2 · TX2 D16 / RX2 D17</tspan></text><text x="453.59999999999997" y="321.90000000000003" dominant-baseline="central" fill="#172033" font-size="11" font-family="sans" text-anchor="middle"><tspan x="453.59999999999997" dy="11">UART bundles: leader TX → follower RX; leader RX ← follower TX; common GND</tspan><tspan x="453.59999999999997" dy="11">Follower uplink: Serial1 or Serial2 as detected by firmware. All controllers share PACK− reference.</tspan></text><text x="-104.39999999999999" y="200.60000000000002" dominant-baseline="central" fill="#b33b32" font-size="10" font-family="sans" text-anchor="middle"><tspan x="-104.39999999999999" dy="10">LEFT_PWR</tspan></text><text x="1004.4" y="207.79999999999998" dominant-baseline="central" fill="#b33b32" font-size="10" font-family="sans" text-anchor="middle"><tspan x="1004.4" dy="10">RIGHT_PWR</tspan></text><text x="1112.3999999999999" y="181.6" dominant-baseline="central" fill="#172033" font-size="10" font-family="sans" text-anchor="start"><tspan x="1112.3999999999999" dy="10">Local H-bridges: octopus LOAD+</tspan><tspan x="1112.3999999999999" dy="10">MCU power: regulated octopus branches</tspan><tspan x="1112.3999999999999" dy="10">All returns → PACK− / GND</tspan></text><text x="-3.6000000000000005" y="389.59999999999997" dominant-baseline="central" fill="#172033" font-size="10" font-family="sans" text-anchor="start"><tspan x="-3.6000000000000005" dy="10">Sense leads require suitable branch protection at the battery taps. Do not apply pack voltage to MCU or Qwiic power pins.</tspan></text><circle cx="216" cy="-720" r="2.7" style="stroke:#9a6900;fill:#9a6900;stroke-width:1.8;stroke-dasharray:-;" /><circle cx="216" cy="-540" r="2.7" style="stroke:#b33b32;fill:#b33b32;stroke-width:1.8;stroke-dasharray:-;" /><circle cx="321.84" cy="-810" r="4.32" style="stroke:#b33b32;fill:white;stroke-width:1.8;stroke-dasharray:-;" /><circle cx="362.16" cy="-810" r="4.32" style="stroke:#b33b32;fill:white;stroke-width:1.8;stroke-dasharray:-;" /><circle cx="504" cy="-720" r="2.7" style="stroke:#9a6900;fill:#9a6900;stroke-width:1.8;stroke-dasharray:-;" /><circle cx="648" cy="-720" r="2.7" style="stroke:#9a6900;fill:#9a6900;stroke-width:1.8;stroke-dasharray:-;" /><circle cx="792" cy="-648" r="2.7" style="stroke:#9a6900;fill:#9a6900;stroke-width:1.8;stroke-dasharray:-;" /><circle cx="1062" cy="-684" r="2.7" style="stroke:#b33b32;fill:#b33b32;stroke-width:1.8;stroke-dasharray:-;" /><circle cx="1368" cy="-648" r="2.7" style="stroke:#b33b32;fill:#b33b32;stroke-width:1.8;stroke-dasharray:-;" /><circle cx="1476" cy="-594" r="2.7" style="stroke:#b33b32;fill:#b33b32;stroke-width:1.8;stroke-dasharray:-;" /><circle cx="1584" cy="-540" r="2.7" style="stroke:#b33b32;fill:#b33b32;stroke-width:1.8;stroke-dasharray:-;" /><circle cx="-108" cy="-342" r="2.7" style="stroke:#b33b32;fill:#b33b32;stroke-width:1.8;stroke-dasharray:-;" /><circle cx="-108" cy="234" r="2.7" style="stroke:#b33b32;fill:#b33b32;stroke-width:1.8;stroke-dasharray:-;" /><circle cx="1008" cy="234" r="2.7" style="stroke:#b33b32;fill:#b33b32;stroke-width:1.8;stroke-dasharray:-;" /></svg>